# xmcd CD database file
#
# Track frame offsets:
#	150
#	2585
#	31100
#	55218
#	77068
#	83428
#	114673
#	139295
#	178856
#	203224
#	235916
#	271520
#	309137
#
# Disc length: 4392 seconds
#
# Revision: 33
# Processed by: cddbd v1.5.2PL0 Copyright (c) Steve Scherf et al.
# Submitted via: CDex 1.51
#
DISCID=9911260d
DTITLE=Freddie King - Texas Guitar Blues
DYEAR=2006
DGENRE=Blues
TTITLE0=Introduction 
TTITLE1=Your Move
TTITLE2=Ain't Gonna Worry Anymore
TTITLE3=Hide Away
TTITLE4=Guitar Blues
TTITLE5=Meet Me in the Morning
TTITLE6=Sweet Home Chicago
TTITLE7=Boogie on Down
TTITLE8=Have You Ever Loved A Woman
TTITLE9=Mojo Boogie
TTITLE10=Hey Baby
TTITLE11=Look On Yonder Wall
TTITLE12=Woman Across The River
EXTD=Tracks 1-8 recorded live at the Texas Opry House on April 20, 1976, accompanied by the Bugs Henderson Band. Tracks 9-13 recorded live in Texas and Oklahoma, details not retained YEAR: 2006
EXTT0=
EXTT1=
EXTT2=
EXTT3=
EXTT4=
EXTT5=
EXTT6=
EXTT7=
EXTT8=
EXTT9=
EXTT10=
EXTT11=
EXTT12=
PLAYORDER=
